<?xml version="1.0" encoding="UTF-8"?>
<svg id="Layer_2" data-name="Layer 2" xmlns="http://www.w3.org/2000/svg" viewBox="0 0 252 253">
  <defs>
    <style>
      .cls-1 {
        fill: #2c68b2;
      }

      .cls-1, .cls-2, .cls-3, .cls-4, .cls-5 {
        stroke-width: 0px;
      }

      .cls-2 {
        fill: #70a440;
      }

      .cls-3 {
        fill: #adbe37;
      }

      .cls-4 {
        fill: #1c4a50;
      }

      .cls-5 {
        fill: #486729;
      }
    </style>
  </defs>
  <g id="Layer_1-2" data-name="Layer 1">
    <g>
      <path class="cls-5" d="m214.62,136.64c11.42-1.97,22.9-1.06,34.37-.85,2.58.05,3.22,1.21,2.95,3.52-3.19,27.02-12.62,51.12-31.34,71.53-9.86,10.74-20.49,20.12-33.17,27.2-14.66,8.19-30.43,12.88-47.05,14.85-1.94.23-3.56.19-5.04-1.54-16.03-18.88-17.73-45.43-7.42-66.02.29-.59,1.14-.9,1.72-1.34.15,2.64,2.02,3.79,4.04,4.98,18.14,10.67,36.86,9.92,55.01,1.08,18.55-9.04,27.28-25.61,30.4-45.44.59-3.73.16-7.08-4.47-7.97Z"/>
      <path class="cls-3" d="m33.42,70.77c-17.2,19.81-26.43,43.02-29.33,68.9-.45,4.02-.64,8.07-1.31,12.08-4.75-22.18-3.37-44.02,3.91-65.43C25.91,29.72,78.88-4.66,138.66.51c11.07.96,11.16.96,11.07,11.77-.03,4.47,1.93,10.14-.8,13.08-2.52,2.71-8.05.12-12.26,0-25.65-.79-49.56,4.86-71.82,17.9-10.8,6.33-20.52,13.62-27.78,23.91l-.08.11c-1.39.26-2.02,1.31-2.53,2.47-.34.34-.69.68-1.03,1.01Z"/>
      <path class="cls-2" d="m214.62,136.64c4.63.89,5.06,4.24,4.47,7.97-3.12,19.83-11.84,36.4-30.4,45.44-18.15,8.84-36.86,9.59-55.01-1.08-2.02-1.19-3.9-2.35-4.05-4.98-.21-4.46,3.1-7.18,5.48-10.13,20.42-25.29,47.64-36.26,79.5-37.22Z"/>
      <path class="cls-5" d="m82.13,162.63c-19.17,15.53-32.92,34.86-40.75,59-6.61-5.49-11.55-11.69-16.26-18.1-5.8-7.91-10.36-16.53-14.49-25.41-1.37-2.95-1.12-4.5,1.82-6.28,17.22-10.43,34.96-19.78,53.79-27-.09,2.12.58,3.82,1.89,5.63,2.76,3.82,6.47,6.78,9.25,10.47,1.52,2.02,3.06,1.5,4.76,1.69Z"/>
      <path class="cls-3" d="m122.75,128.02c29.35-6.82,59.08-6.17,88.84-4.3,12.41.78,24.71,2.63,36.94,4.93,1.07.2,2.29.05,3.19,1.67-1.81,1.23-3.83.6-5.62.44-34.45-3.06-68.48-.23-102.2,7.11-4.76,1.03-9.5,2.12-14.25,3.19-1.08-2.15-1.34-4.7-3.46-6.32-2.17-1.66-3.69-3.76-3.43-6.71Z"/>
      <path class="cls-2" d="m122.75,128.02c-.26,2.95,1.26,5.05,3.43,6.71,2.12,1.63,2.39,4.18,3.46,6.32-17.09,4.44-33.2,11.02-47.51,21.57-1.7-.19-3.24.33-4.76-1.69-2.78-3.69-6.49-6.65-9.25-10.47-1.31-1.81-1.98-3.51-1.89-5.63,18.22-7.7,37.13-13.04,56.51-16.82Z"/>
      <path class="cls-3" d="m249.19,105.24c-8.58-22.76-21.53-42.4-40.86-57.57-1.24-.97-2.2-1.9-2.18-3.65.07-6.33.03-12.67.03-20.27,25.33,22.36,39.91,48.87,43.02,81.5Z"/>
      <path class="cls-4" d="m94.06,250.03c-10.74-2.35-20.16-6.84-29.54-11.49-1.74-.86-1.81-2.19-1.43-3.78,1.88-7.87,4.26-15.56,7.62-22.95.88-1.94,1.57-2.72,4.15-2.16,14.99,3.25,15,3.13,15.21,18.04.03,2.07-.03,4.19.37,6.2,1.03,5.15,2.29,10.26,3.63,16.14Z"/>
      <path class="cls-4" d="m75.94,201.76c5.6-10.11,12.4-18.8,20.49-26.44,3.16-2.99,6.13.27,8.51,1.6,2.96,1.65-.36,3.43-1.26,4.8-4.36,6.63-8.27,13.49-10.95,20.95-.89,2.48-1.6,3.33-4.33,2.39-3.88-1.33-7.94-2.12-12.47-3.29Z"/>
      <path class="cls-4" d="m101.57,170.54c10.83-9.05,22.2-16.28,35.79-19.73-5.25,3.81-10.57,7.52-15.7,11.47-2.67,2.05-5.55,4.18-7.38,6.91-3.65,5.45-7.63,4.28-12.71,1.35Z"/>
      <path class="cls-1" d="m159.4,124.15c.1.23.23.44.28.68.01.06-.2.18-.31.27,0-.32.02-.63.03-.95Z"/>
      <path class="cls-1" d="m174.9,115.95c.1-.36.23-.72.37-1.06.59.6.57.99-.37,1.06Z"/>
      <g>
        <path class="cls-3" d="m41.87,90.41c.94,2.16,2.65,3.8,3.84,5.79.95,1.6,2.19,3.12,2.05,5.32-4.35-2.63-8.57-5.18-14.23-6.16,10.43,6.08,18.97,13.01,23.42,24-.46-.49-.92-.97-1.37-1.46-8.34-9.12-18.22-15.89-30.01-19.77-1.17-.39-2.25-.49-1.32-2.25,4.24-7.97,10.27-13.99,18.58-17.66,1-.44,1.84-.84,2.71.48,5.82,8.85,9,18.6,10.21,29.06.01.12-.13.25-.3.58-1.86-2.32-4.12-4-5.06-7.12-1.36-4.51-4.91-7.79-8.02-11.24-.16-.37-.52-.52-.78-.3-.38.34.15.48.29.71Z"/>
        <path class="cls-2" d="m77.2,109.09c.13-4.15,2.35-7.3,4.93-10.26.75-.86,1.72-1.52,2.72-2.39-1.45-.7-2.09.18-2.78.63-3.68,2.4-5.95,5.96-7.83,9.8-2.74,5.58-5.05,11.38-8.32,16.7-.69,1.11-1.39,2.22-2.56,3.2.27-3.63.52-7.27.8-10.9.42-5.38.98-10.74,1.87-16.06.27-1.59,1.01-2.2,2.43-2.62,7.56-2.25,15.1-4.57,21.63-9.23.61-.44,1.22-.45,1.88-.25.4.12.79.26,1.18.41,7.18,2.72,7.58,4.76,1.75,9.51-5.48,4.46-11.56,8.03-17.74,11.43l.03.06Z"/>
        <path class="cls-5" d="m64.37,146.69c1.25-14.73,7.54-26.79,18.54-36.51,4.97-4.39,10.47-8.17,15.07-12.99.72-.75,1.38-.85,2.14-.17,2.86,2.53,4.8,5.68,6.13,9.23.38,1-.13,1.37-.97,1.57-20.59,5.12-32.54,19.35-40.21,38.1-.09.23-.24.44-.38.64-.04.06-.15.06-.32.13Z"/>
        <path class="cls-2" d="m56.84,140.89c-1.13-.76-1.24-1.63-1.59-2.34-4.76-9.77-10.98-18.32-20.13-24.48-4.24-2.85-8.87-4.82-13.85-5.95-2.84-.65-3.68-1.67-3.67-4.59,0-.33.03-.66.06-.99.45-4.62.98-4.96,5.2-3.18,13.18,5.56,23.86,13.91,30.14,27.12,2.11,4.44,3.43,9.11,3.84,14.41Z"/>
        <path class="cls-3" d="m91.93,84.39c-7.7,3.61-15.29,6.42-23.02,8.88-1.35.43-1.4-.15-1.25-1.15.06-.41.09-.83.19-1.23,3.4-12.79,6.84-13.45,17.84-9.84,2.11.69,4.12,1.67,6.24,3.33Z"/>
        <path class="cls-3" d="m47.41,77.67s17.41-3.27,23.09,0c5.69,3.27-5.96,5.53-8.25,15.32-2.29,9.79-2.52,10.26-2.52,10.26,0,0-8.29-25.22-12.32-25.57Z"/>
      </g>
      <path class="cls-4" d="m158.75,58.98c-.89.4-1.49.62-2.05.91-6.93,3.57-13.78,7.31-20.82,10.63-2.67,1.26-3.41,2.91-3.33,5.56.17,5.14.24,10.28.25,15.43.01,9.12,0,18.25,0,27.37,8.62-1.81,17.28-3.08,25.95-3.94v-55.96Z"/>
      <path class="cls-4" d="m193.14,113.42c0-14.05,0-28.1,0-42.14,0-17.04,0-34.08.03-51.12,0-1.42-.39-2.23-1.75-2.85-4.09-1.83-8.11-3.83-12.15-5.76-3.94-1.88-7.87-3.76-11.79-5.64-.19.35-.26.42-.26.5,0,28.36.02,56.72.02,85.07,0,7.58-.03,15.16-.07,22.74,8.64-.6,17.31-.83,25.98-.8Z"/>
      <rect class="cls-3" x="177.22" y="36.24" width="14.71" height="2.49"/>
      <rect class="cls-3" x="177.22" y="43.3" width="14.71" height="2.49"/>
      <rect class="cls-3" x="177.22" y="50.37" width="14.71" height="2.49"/>
      <rect class="cls-3" x="177.22" y="57.43" width="14.71" height="2.49"/>
      <rect class="cls-3" x="177.22" y="64.49" width="14.71" height="2.49"/>
      <rect class="cls-3" x="177.22" y="71.55" width="14.71" height="2.49"/>
      <rect class="cls-3" x="177.22" y="78.62" width="14.71" height="2.49"/>
      <rect class="cls-3" x="177.22" y="85.68" width="14.71" height="2.49"/>
      <rect class="cls-3" x="177.22" y="92.74" width="14.71" height="2.49"/>
      <rect class="cls-3" x="177.22" y="99.81" width="14.71" height="2.49"/>
      <g>
        <rect class="cls-3" x="138.76" y="74.84" width="8.12" height="1.38"/>
        <rect class="cls-3" x="138.76" y="78.74" width="8.12" height="1.38"/>
        <rect class="cls-3" x="138.76" y="82.64" width="8.12" height="1.38"/>
        <rect class="cls-3" x="138.76" y="86.54" width="8.12" height="1.38"/>
        <rect class="cls-3" x="138.76" y="90.44" width="8.12" height="1.38"/>
        <rect class="cls-3" x="138.76" y="94.33" width="8.12" height="1.38"/>
        <rect class="cls-3" x="138.76" y="98.23" width="8.12" height="1.38"/>
        <rect class="cls-3" x="138.76" y="102.13" width="8.12" height="1.38"/>
        <rect class="cls-3" x="138.76" y="106.03" width="8.12" height="1.38"/>
        <rect class="cls-3" x="138.76" y="109.93" width="8.12" height="1.38"/>
      </g>
    </g>
  </g>
</svg>