<?xml version="1.0" encoding="UTF-8"?>
<svg id="Layer_2" data-name="Layer 2" xmlns="http://www.w3.org/2000/svg" viewBox="0 0 125.7 41.22">
  <defs>
    <style>
      .cls-1 {
        fill: #2c68b2;
      }

      .cls-1, .cls-2, .cls-3, .cls-4, .cls-5, .cls-6 {
        stroke-width: 0px;
      }

      .cls-2 {
        fill: #fff;
      }

      .cls-3 {
        fill: #70a440;
      }

      .cls-4 {
        fill: #adbe37;
      }

      .cls-5 {
        fill: #1c4a50;
      }

      .cls-6 {
        fill: #486729;
      }
    </style>
  </defs>
  <g id="Layer_1-2" data-name="Layer 1">
    <g>
      <g>
        <path class="cls-2" d="m49.98,14.91s-.04-.06-.04-.1c0-.03,0-.05,0-.06l1.62-4.42c.01-.06.04-.1.09-.14.05-.04.11-.06.18-.06h1.02c.07,0,.13.02.18.06.05.04.08.08.09.14l1.61,4.42v.06s0,.07-.03.1c-.03.03-.07.04-.11.04h-.85c-.11,0-.18-.05-.22-.14l-.27-.7h-1.84l-.26.7c-.04.1-.11.14-.23.14h-.85s-.07-.01-.1-.04Zm3-1.79l-.64-1.82-.64,1.82h1.28Z"/>
        <path class="cls-2" d="m56.63,14.91s-.05-.07-.05-.12v-4.47c0-.05.02-.09.05-.12.03-.03.07-.05.12-.05h2.1c.58,0,1.01.12,1.29.35.28.24.42.57.42,1.01,0,.23-.06.42-.18.58-.12.16-.25.27-.4.35.19.09.35.23.47.42.13.19.19.41.19.65,0,.46-.15.82-.45,1.07-.3.26-.73.39-1.29.39h-2.16s-.09-.02-.12-.05Zm2.08-2.85c.18,0,.32-.05.42-.14.1-.09.14-.22.14-.38s-.05-.27-.14-.36c-.1-.09-.24-.14-.42-.14h-.89v1.02h.89Zm.06,2.01c.19,0,.33-.06.44-.17s.16-.24.16-.4c0-.17-.05-.3-.16-.41-.11-.11-.25-.16-.44-.16h-.96v1.14h.96Z"/>
        <path class="cls-2" d="m62.34,14.91s-.04-.06-.04-.1c0-.03,0-.05,0-.06l1.62-4.42c.01-.06.04-.1.09-.14.05-.04.11-.06.18-.06h1.02c.07,0,.13.02.18.06s.08.08.09.14l1.61,4.42v.06s0,.07-.03.1c-.03.03-.07.04-.11.04h-.85c-.11,0-.18-.05-.22-.14l-.27-.7h-1.84l-.26.7c-.04.1-.11.14-.23.14h-.85s-.07-.01-.1-.04Zm3-1.79l-.64-1.82-.64,1.82h1.28Z"/>
        <path class="cls-2" d="m68.99,14.91s-.05-.07-.05-.12v-4.47c0-.05.02-.09.05-.12.03-.03.07-.05.12-.05h.73c.11,0,.19.04.23.13l1.68,2.64v-2.6c0-.05.02-.09.05-.12.03-.03.07-.05.12-.05h.83c.05,0,.09.02.12.05.03.03.05.07.05.12v4.47c0,.05-.02.09-.05.13s-.07.05-.12.05h-.74c-.1,0-.18-.04-.23-.13l-1.68-2.55v2.51s-.02.09-.05.12-.07.05-.12.05h-.83s-.09-.02-.12-.05Z"/>
        <path class="cls-2" d="m76.31,14.91s-.05-.07-.05-.12v-3.57h-1.23s-.09-.02-.12-.05c-.03-.03-.05-.07-.05-.12v-.74c0-.05.02-.09.05-.12.03-.03.07-.05.12-.05h3.7c.05,0,.09.02.12.05.03.03.05.07.05.12v.74c0,.05-.02.09-.05.12-.03.03-.07.05-.12.05h-1.23v3.57s-.02.09-.05.12c-.03.03-.07.05-.12.05h-.91s-.09-.02-.12-.05Z"/>
        <path class="cls-2" d="m81.35,14.55c-.36-.32-.55-.79-.55-1.43v-2.81c0-.05.02-.09.05-.12.03-.03.07-.05.12-.05h.89c.05,0,.09.02.13.05.03.03.05.07.05.12v2.8c0,.3.07.52.21.67.14.15.34.22.61.22s.46-.08.61-.23c.14-.15.21-.37.21-.67v-2.8c0-.05.02-.09.05-.12.03-.03.07-.05.12-.05h.89c.05,0,.09.02.12.05.03.03.05.07.05.12v2.81c0,.64-.18,1.12-.55,1.43-.36.32-.87.47-1.5.47s-1.15-.16-1.52-.47Z"/>
        <path class="cls-2" d="m50.41,23.17s-.05-.07-.05-.12v-4.47c0-.05.02-.09.05-.12.03-.03.07-.05.12-.05h3.21c.05,0,.09.02.12.05.03.03.05.07.05.12v.65s-.02.09-.05.12c-.03.03-.07.05-.12.05h-2.2v.93h2.04c.05,0,.09.02.12.05.03.03.05.08.05.13v.6s-.02.09-.05.12c-.03.03-.07.05-.12.05h-2.04v.96h2.25c.05,0,.09.02.12.05.03.03.05.07.05.12v.65s-.02.09-.05.12c-.03.03-.07.05-.12.05h-3.27s-.09-.02-.12-.05Z"/>
        <path class="cls-2" d="m56.27,23.17s-.05-.07-.05-.12v-4.47c0-.05.02-.09.05-.12.03-.03.07-.05.12-.05h.73c.11,0,.19.04.23.13l1.68,2.64v-2.6c0-.05.02-.09.05-.12.03-.03.07-.05.12-.05h.83c.05,0,.09.02.12.05.03.03.05.07.05.12v4.47c0,.05-.02.09-.05.13-.03.03-.07.05-.12.05h-.74c-.1,0-.18-.04-.23-.13l-1.68-2.55v2.51s-.02.09-.05.12c-.03.03-.07.05-.12.05h-.83s-.09-.02-.12-.05Z"/>
        <path class="cls-2" d="m63.55,23.01l-1.4-4.41v-.06s0-.07.03-.1.07-.04.11-.04h.85c.06,0,.12.02.16.06.04.04.07.08.09.12l.98,3.18.97-3.18s.04-.09.09-.12c.04-.04.1-.06.16-.06h.86s.07.01.1.04.04.06.04.1v.06s-1.42,4.41-1.42,4.41c-.04.14-.14.21-.28.21h-1.05c-.15,0-.24-.07-.28-.21Z"/>
        <path class="cls-2" d="m68.56,23.17s-.05-.07-.05-.12v-4.47c0-.05.02-.09.05-.12.03-.03.07-.05.12-.05h.92c.05,0,.09.02.13.05.03.03.05.07.05.12v4.47c0,.05-.02.09-.05.12-.03.03-.08.05-.13.05h-.92s-.09-.02-.12-.05Z"/>
        <path class="cls-2" d="m72.26,23.17s-.05-.07-.05-.12v-4.47c0-.05.02-.09.05-.12.03-.03.07-.05.12-.05h1.87c.6,0,1.07.14,1.41.41.34.27.51.66.51,1.16,0,.32-.08.59-.23.82-.15.22-.36.4-.63.52l.94,1.69s.02.05.02.08c0,.04-.02.07-.04.1-.03.03-.06.04-.1.04h-.92c-.13,0-.23-.06-.28-.19l-.78-1.51h-.7v1.53c0,.05-.02.09-.05.12s-.08.05-.13.05h-.89s-.09-.02-.12-.05Zm1.98-2.63c.21,0,.37-.05.48-.15.11-.1.17-.25.17-.43s-.05-.33-.16-.44c-.11-.11-.27-.16-.49-.16h-.79v1.18h.79Z"/>
        <path class="cls-2" d="m78.87,22.81c-.37-.32-.57-.78-.59-1.4,0-.13,0-.33,0-.59s0-.47,0-.6c.02-.61.22-1.07.6-1.4.38-.33.88-.49,1.52-.49s1.14.16,1.52.49c.38.33.58.8.6,1.4,0,.27.01.47.01.6s0,.33-.01.59c-.02.62-.22,1.08-.59,1.4s-.88.47-1.53.47-1.16-.16-1.53-.47Zm2.13-.74c.15-.15.23-.38.24-.7,0-.27.01-.45.01-.56,0-.12,0-.31-.01-.56,0-.31-.09-.54-.24-.7-.15-.15-.35-.23-.6-.23s-.45.08-.6.23c-.15.15-.23.38-.24.7,0,.13,0,.32,0,.56s0,.43,0,.56c.01.31.09.54.24.7.15.15.35.23.6.23s.45-.08.6-.23Z"/>
        <path class="cls-2" d="m84.85,23.17s-.05-.07-.05-.12v-4.47c0-.05.02-.09.05-.12.03-.03.07-.05.12-.05h.73c.11,0,.19.04.23.13l1.68,2.64v-2.6c0-.05.02-.09.05-.12.03-.03.07-.05.12-.05h.83c.05,0,.09.02.12.05.03.03.05.07.05.12v4.47c0,.05-.02.09-.05.13-.03.03-.07.05-.12.05h-.74c-.1,0-.18-.04-.23-.13l-1.68-2.55v2.51s-.02.09-.05.12c-.03.03-.07.05-.12.05h-.83s-.09-.02-.12-.05Z"/>
        <path class="cls-2" d="m91.26,23.17s-.05-.07-.05-.12v-4.47c0-.05.02-.09.05-.12.03-.03.07-.05.12-.05h.74c.11,0,.19.05.24.15l1.21,2.17,1.21-2.17c.05-.1.13-.15.24-.15h.74c.05,0,.09.02.13.05.03.03.05.07.05.12v4.47c0,.05-.02.09-.05.12-.03.03-.08.05-.13.05h-.82c-.05,0-.09-.02-.13-.05-.03-.03-.05-.07-.05-.12v-2.58l-.77,1.44c-.06.11-.14.16-.24.16h-.36c-.06,0-.11-.01-.14-.04-.04-.03-.07-.07-.1-.12l-.78-1.44v2.58s-.02.09-.05.12c-.03.03-.07.05-.12.05h-.83s-.09-.02-.12-.05Z"/>
        <path class="cls-2" d="m98.43,23.17s-.05-.07-.05-.12v-4.47c0-.05.02-.09.05-.12.03-.03.07-.05.12-.05h3.21c.05,0,.09.02.12.05.03.03.05.07.05.12v.65s-.02.09-.05.12c-.03.03-.07.05-.12.05h-2.2v.93h2.04c.05,0,.09.02.12.05.03.03.05.08.05.13v.6s-.02.09-.05.12c-.03.03-.07.05-.12.05h-2.04v.96h2.25c.05,0,.09.02.12.05.03.03.05.07.05.12v.65s-.02.09-.05.12c-.03.03-.07.05-.12.05h-3.27s-.09-.02-.12-.05Z"/>
        <path class="cls-2" d="m104.29,23.17s-.05-.07-.05-.12v-4.47c0-.05.02-.09.05-.12.03-.03.07-.05.12-.05h.73c.11,0,.19.04.23.13l1.68,2.64v-2.6c0-.05.02-.09.05-.12.03-.03.07-.05.12-.05h.83c.05,0,.09.02.12.05.03.03.05.07.05.12v4.47c0,.05-.02.09-.05.13-.03.03-.07.05-.12.05h-.74c-.1,0-.18-.04-.23-.13l-1.68-2.55v2.51s-.02.09-.05.12c-.03.03-.07.05-.12.05h-.83s-.09-.02-.12-.05Z"/>
        <path class="cls-2" d="m111.61,23.17s-.05-.07-.05-.12v-3.57h-1.23s-.09-.02-.12-.05-.05-.07-.05-.12v-.74c0-.05.02-.09.05-.12.03-.03.07-.05.12-.05h3.7c.05,0,.09.02.12.05.03.03.05.07.05.12v.74c0,.05-.02.09-.05.12-.03.03-.07.05-.12.05h-1.23v3.57s-.02.09-.05.12c-.03.03-.07.05-.12.05h-.91s-.09-.02-.12-.05Z"/>
        <path class="cls-2" d="m115.6,23.17s-.04-.06-.04-.1c0-.03,0-.05,0-.06l1.62-4.42c.01-.06.04-.1.09-.14s.11-.06.18-.06h1.02c.07,0,.13.02.18.06.05.04.08.08.09.14l1.61,4.42v.06s0,.07-.03.1c-.03.03-.07.04-.11.04h-.85c-.11,0-.18-.05-.22-.14l-.27-.7h-1.84l-.26.7c-.04.1-.11.14-.23.14h-.85s-.07-.01-.1-.04Zm3-1.79l-.64-1.82-.64,1.82h1.28Z"/>
        <path class="cls-2" d="m122.25,23.17s-.05-.07-.05-.12v-4.47c0-.05.02-.09.05-.12.03-.03.07-.05.12-.05h.91c.05,0,.09.02.12.05.03.03.05.07.05.12v3.61h2.09c.05,0,.09.02.12.05.03.03.05.08.05.13v.69s-.02.09-.05.12c-.03.03-.07.05-.12.05h-3.17s-.09-.02-.12-.05Z"/>
        <path class="cls-2" d="m51.03,31.36c-.31-.13-.55-.3-.71-.51-.16-.21-.24-.44-.25-.69,0-.04.01-.07.04-.1.03-.03.07-.04.11-.04h.87c.06,0,.1.01.13.03s.07.05.11.09c.06.12.16.22.29.3.13.08.31.12.53.12.26,0,.46-.04.6-.12s.21-.2.21-.34c0-.1-.04-.18-.11-.25-.07-.06-.18-.12-.33-.17-.15-.05-.38-.11-.67-.17-.55-.11-.96-.28-1.24-.51-.27-.22-.41-.54-.41-.95,0-.28.08-.53.23-.75s.38-.39.67-.52c.29-.12.63-.19,1.01-.19s.75.07,1.04.21c.29.14.52.31.67.52.15.21.24.41.24.62,0,.04-.01.08-.04.1-.03.03-.06.04-.1.04h-.91c-.06,0-.1,0-.13-.03s-.07-.05-.09-.09c-.03-.11-.1-.2-.22-.27-.12-.07-.27-.11-.45-.11-.21,0-.36.04-.47.11-.11.07-.17.18-.17.32,0,.1.03.18.09.24s.16.12.3.18c.14.05.34.11.6.16.43.08.77.18,1.02.29.25.12.44.27.56.45.12.19.18.42.18.7,0,.31-.09.57-.27.8-.18.23-.42.4-.74.52-.31.12-.67.18-1.08.18-.44,0-.81-.06-1.12-.19Z"/>
        <path class="cls-2" d="m56.44,31.43s-.05-.07-.05-.12v-4.47c0-.05.02-.09.05-.12s.07-.05.12-.05h3.21c.05,0,.09.02.12.05.03.03.05.07.05.12v.65s-.02.09-.05.12c-.03.03-.07.05-.12.05h-2.2v.93h2.04c.05,0,.09.02.12.05.03.03.05.08.05.13v.6s-.02.09-.05.12c-.03.03-.07.05-.12.05h-2.04v.96h2.25c.05,0,.09.02.12.05.03.03.05.07.05.12v.65s-.02.09-.05.12c-.03.03-.07.05-.12.05h-3.27s-.09-.02-.12-.05Z"/>
        <path class="cls-2" d="m62.3,31.43s-.05-.07-.05-.12v-4.47c0-.05.02-.09.05-.12.03-.03.07-.05.12-.05h1.87c.6,0,1.07.14,1.41.41.34.27.51.66.51,1.16,0,.32-.08.59-.23.82-.15.22-.36.4-.63.52l.94,1.69s.02.05.02.08c0,.04-.02.07-.04.1-.03.03-.06.04-.1.04h-.92c-.13,0-.23-.06-.28-.19l-.78-1.51h-.7v1.53c0,.05-.02.09-.05.12s-.08.05-.13.05h-.89s-.09-.02-.12-.05Zm1.98-2.63c.21,0,.37-.05.48-.15.11-.1.17-.25.17-.43s-.05-.33-.16-.44c-.11-.11-.27-.16-.49-.16h-.79v1.18h.79Z"/>
        <path class="cls-2" d="m69.39,31.27l-1.4-4.41v-.06s0-.07.03-.1.07-.04.11-.04h.85c.06,0,.12.02.16.06.04.04.07.08.09.12l.98,3.18.97-3.18s.04-.09.09-.12c.04-.04.1-.06.16-.06h.86s.07.02.1.04.04.06.04.1v.06s-1.42,4.41-1.42,4.41c-.04.14-.14.21-.28.21h-1.05c-.15,0-.24-.07-.28-.21Z"/>
        <path class="cls-2" d="m74.4,31.43s-.05-.07-.05-.12v-4.47c0-.05.02-.09.05-.12.03-.03.07-.05.12-.05h.92c.05,0,.09.02.13.05.03.03.05.07.05.12v4.47c0,.05-.02.09-.05.12-.03.03-.08.05-.13.05h-.92s-.09-.02-.12-.05Z"/>
        <path class="cls-2" d="m78.48,31.07c-.37-.32-.57-.78-.59-1.39,0-.12,0-.33,0-.61s0-.49,0-.62c.02-.6.22-1.06.6-1.38.38-.32.89-.49,1.53-.49.4,0,.77.07,1.09.2.32.14.57.33.76.58s.28.54.29.88h0c0,.05-.02.08-.04.11-.03.03-.06.04-.1.04h-.93c-.06,0-.11-.01-.14-.04s-.06-.07-.08-.14c-.06-.23-.17-.4-.3-.49-.14-.09-.32-.14-.54-.14-.54,0-.82.3-.84.91,0,.12,0,.31,0,.57s0,.45,0,.59c.02.61.3.91.84.91.22,0,.41-.05.55-.15s.24-.26.3-.49c.02-.07.04-.12.08-.14s.08-.04.14-.04h.93s.08.01.11.04c.03.03.04.06.04.1,0,.33-.1.63-.29.88s-.44.44-.76.58c-.32.14-.68.2-1.09.2-.66,0-1.17-.16-1.54-.48Z"/>
        <path class="cls-2" d="m84.39,31.43s-.05-.07-.05-.12v-4.47c0-.05.02-.09.05-.12.03-.03.07-.05.12-.05h3.21c.05,0,.09.02.12.05s.05.07.05.12v.65s-.02.09-.05.12-.07.05-.12.05h-2.2v.93h2.04c.05,0,.09.02.12.05.03.03.05.08.05.13v.6s-.02.09-.05.12c-.03.03-.07.05-.12.05h-2.04v.96h2.25c.05,0,.09.02.12.05.03.03.05.07.05.12v.65s-.02.09-.05.12c-.03.03-.07.05-.12.05h-3.27s-.09-.02-.12-.05Z"/>
        <path class="cls-2" d="m90.88,31.36c-.31-.13-.55-.3-.71-.51s-.24-.44-.25-.69c0-.04.01-.07.04-.1s.07-.04.11-.04h.87c.05,0,.1.01.13.03.03.02.07.05.11.09.06.12.16.22.29.3.13.08.31.12.53.12.26,0,.46-.04.6-.12.14-.08.21-.2.21-.34,0-.1-.04-.18-.11-.25-.07-.06-.18-.12-.33-.17-.15-.05-.38-.11-.67-.17-.55-.11-.96-.28-1.24-.51-.27-.22-.41-.54-.41-.95,0-.28.08-.53.23-.75.16-.22.38-.39.67-.52.29-.12.63-.19,1.01-.19s.75.07,1.04.21c.29.14.52.31.67.52.15.21.24.41.24.62,0,.04-.01.08-.04.1-.03.03-.06.04-.1.04h-.91c-.06,0-.1,0-.13-.03-.03-.02-.07-.05-.09-.09-.03-.11-.1-.2-.22-.27-.12-.07-.27-.11-.45-.11-.21,0-.36.04-.47.11-.11.07-.17.18-.17.32,0,.1.03.18.09.24.06.06.16.12.3.18.14.05.34.11.6.16.43.08.77.18,1.02.29.25.12.44.27.56.45s.18.42.18.7c0,.31-.09.57-.27.8-.18.23-.42.4-.74.52-.31.12-.67.18-1.08.18-.44,0-.81-.06-1.12-.19Z"/>
      </g>
      <g>
        <path class="cls-6" d="m34.97,22.26c1.86-.32,3.73-.17,5.6-.14.42,0,.52.2.48.57-.52,4.4-2.06,8.33-5.11,11.65-1.61,1.75-3.34,3.28-5.4,4.43-2.39,1.33-4.96,2.1-7.67,2.42-.32.04-.58.03-.82-.25-2.61-3.08-2.89-7.4-1.21-10.76.05-.1.19-.15.28-.22.02.43.33.62.66.81,2.96,1.74,6,1.62,8.96.18,3.02-1.47,4.44-4.17,4.95-7.4.1-.61.03-1.15-.73-1.3Z"/>
        <path class="cls-4" d="m5.44,11.53c-2.8,3.23-4.31,7.01-4.78,11.23-.07.66-.1,1.31-.21,1.97-.77-3.61-.55-7.17.64-10.66C4.22,4.84,12.85-.76,22.59.08c1.8.16,1.82.16,1.8,1.92,0,.73.31,1.65-.13,2.13-.41.44-1.31.02-2,0-4.18-.13-8.07.79-11.7,2.92-1.76,1.03-3.34,2.22-4.53,3.9v.02c-.24.04-.34.21-.43.4-.06.06-.11.11-.17.17Z"/>
        <path class="cls-3" d="m34.97,22.26c.75.15.82.69.73,1.3-.51,3.23-1.93,5.93-4.95,7.4-2.96,1.44-6.01,1.56-8.96-.18-.33-.19-.63-.38-.66-.81-.03-.73.5-1.17.89-1.65,3.33-4.12,7.76-5.91,12.95-6.06Z"/>
        <path class="cls-6" d="m13.38,26.5c-3.12,2.53-5.36,5.68-6.64,9.61-1.08-.89-1.88-1.9-2.65-2.95-.95-1.29-1.69-2.69-2.36-4.14-.22-.48-.18-.73.3-1.02,2.81-1.7,5.7-3.22,8.76-4.4-.02.35.09.62.31.92.45.62,1.05,1.1,1.51,1.71.25.33.5.24.78.27Z"/>
        <path class="cls-4" d="m20,20.86c4.78-1.11,9.63-1.01,14.47-.7,2.02.13,4.03.43,6.02.8.17.03.37,0,.52.27-.29.2-.62.1-.92.07-5.61-.5-11.16-.04-16.65,1.16-.77.17-1.55.35-2.32.52-.18-.35-.22-.77-.56-1.03-.35-.27-.6-.61-.56-1.09Z"/>
        <path class="cls-3" d="m20,20.86c-.04.48.2.82.56,1.09.35.27.39.68.56,1.03-2.78.72-5.41,1.8-7.74,3.51-.28-.03-.53.05-.78-.27-.45-.6-1.06-1.08-1.51-1.71-.21-.3-.32-.57-.31-.92,2.97-1.25,6.05-2.12,9.21-2.74Z"/>
        <path class="cls-4" d="m40.6,17.15c-1.4-3.71-3.51-6.91-6.66-9.38-.2-.16-.36-.31-.36-.6.01-1.03,0-2.06,0-3.3,4.13,3.64,6.5,7.96,7.01,13.28Z"/>
        <path class="cls-5" d="m15.32,40.73c-1.75-.38-3.28-1.11-4.81-1.87-.28-.14-.3-.36-.23-.62.31-1.28.69-2.54,1.24-3.74.14-.32.26-.44.68-.35,2.44.53,2.44.51,2.48,2.94,0,.34,0,.68.06,1.01.17.84.37,1.67.59,2.63Z"/>
        <path class="cls-5" d="m12.37,32.87c.91-1.65,2.02-3.06,3.34-4.31.51-.49,1,.04,1.39.26.48.27-.06.56-.2.78-.71,1.08-1.35,2.2-1.78,3.41-.15.4-.26.54-.7.39-.63-.22-1.29-.35-2.03-.54Z"/>
        <path class="cls-5" d="m16.55,27.78c1.76-1.47,3.62-2.65,5.83-3.21-.85.62-1.72,1.22-2.56,1.87-.43.33-.9.68-1.2,1.13-.6.89-1.24.7-2.07.22Z"/>
        <path class="cls-1" d="m25.97,20.23s.04.07.05.11c0,0-.03.03-.05.04,0-.05,0-.1,0-.15Z"/>
        <path class="cls-1" d="m28.49,18.89c.02-.06.04-.12.06-.17.1.1.09.16-.06.17Z"/>
        <g>
          <path class="cls-4" d="m6.82,14.73c.15.35.43.62.63.94.16.26.36.51.33.87-.71-.43-1.4-.84-2.32-1,1.7.99,3.09,2.12,3.82,3.91-.07-.08-.15-.16-.22-.24-1.36-1.49-2.97-2.59-4.89-3.22-.19-.06-.37-.08-.21-.37.69-1.3,1.67-2.28,3.03-2.88.16-.07.3-.14.44.08.95,1.44,1.47,3.03,1.66,4.73,0,.02-.02.04-.05.09-.3-.38-.67-.65-.82-1.16-.22-.73-.8-1.27-1.31-1.83-.03-.06-.09-.08-.13-.05-.06.05.02.08.05.12Z"/>
          <path class="cls-3" d="m12.58,17.77c.02-.68.38-1.19.8-1.67.12-.14.28-.25.44-.39-.24-.11-.34.03-.45.1-.6.39-.97.97-1.28,1.6-.45.91-.82,1.85-1.36,2.72-.11.18-.23.36-.42.52.04-.59.08-1.18.13-1.78.07-.88.16-1.75.3-2.62.04-.26.17-.36.4-.43,1.23-.37,2.46-.74,3.52-1.5.1-.07.2-.07.31-.04.06.02.13.04.19.07,1.17.44,1.24.78.28,1.55-.89.73-1.88,1.31-2.89,1.86h0Z"/>
          <path class="cls-6" d="m10.49,23.9c.2-2.4,1.23-4.36,3.02-5.95.81-.72,1.71-1.33,2.45-2.12.12-.12.22-.14.35-.03.47.41.78.93,1,1.5.06.16-.02.22-.16.26-3.35.83-5.3,3.15-6.55,6.21-.02.04-.04.07-.06.1,0,0-.02.01-.05.02Z"/>
          <path class="cls-3" d="m9.26,22.95c-.18-.12-.2-.27-.26-.38-.78-1.59-1.79-2.99-3.28-3.99-.69-.47-1.44-.79-2.26-.97-.46-.11-.6-.27-.6-.75,0-.05,0-.11,0-.16.07-.75.16-.81.85-.52,2.15.91,3.89,2.27,4.91,4.42.34.72.56,1.48.62,2.35Z"/>
          <path class="cls-4" d="m14.98,13.75c-1.25.59-2.49,1.05-3.75,1.45-.22.07-.23-.03-.2-.19.01-.07.01-.14.03-.2.55-2.08,1.11-2.19,2.91-1.6.34.11.67.27,1.02.54Z"/>
          <path class="cls-4" d="m7.72,12.65s2.84-.53,3.76,0-.97.9-1.34,2.5-.41,1.67-.41,1.67c0,0-1.35-4.11-2.01-4.17Z"/>
        </g>
        <path class="cls-5" d="m25.86,9.61c-.15.06-.24.1-.33.15-1.13.58-2.24,1.19-3.39,1.73-.44.2-.56.47-.54.91.03.84.04,1.68.04,2.51,0,1.49,0,2.97,0,4.46,1.41-.29,2.81-.5,4.23-.64v-9.12Z"/>
        <path class="cls-5" d="m31.47,18.48c0-2.29,0-4.58,0-6.87,0-2.78,0-5.55,0-8.33,0-.23-.06-.36-.29-.46-.67-.3-1.32-.62-1.98-.94-.64-.31-1.28-.61-1.92-.92-.03.06-.04.07-.04.08,0,4.62,0,9.24,0,13.86,0,1.23,0,2.47-.01,3.7,1.41-.1,2.82-.14,4.23-.13Z"/>
        <rect class="cls-4" x="28.87" y="5.9" width="2.4" height=".41"/>
        <rect class="cls-4" x="28.87" y="7.05" width="2.4" height=".41"/>
        <rect class="cls-4" x="28.87" y="8.21" width="2.4" height=".41"/>
        <rect class="cls-4" x="28.87" y="9.36" width="2.4" height=".41"/>
        <rect class="cls-4" x="28.87" y="10.51" width="2.4" height=".41"/>
        <rect class="cls-4" x="28.87" y="11.66" width="2.4" height=".41"/>
        <rect class="cls-4" x="28.87" y="12.81" width="2.4" height=".41"/>
        <rect class="cls-4" x="28.87" y="13.96" width="2.4" height=".41"/>
        <rect class="cls-4" x="28.87" y="15.11" width="2.4" height=".41"/>
        <rect class="cls-4" x="28.87" y="16.26" width="2.4" height=".41"/>
        <g>
          <rect class="cls-4" x="22.61" y="12.19" width="1.32" height=".22"/>
          <rect class="cls-4" x="22.61" y="12.83" width="1.32" height=".22"/>
          <rect class="cls-4" x="22.61" y="13.46" width="1.32" height=".22"/>
          <rect class="cls-4" x="22.61" y="14.1" width="1.32" height=".22"/>
          <rect class="cls-4" x="22.61" y="14.73" width="1.32" height=".22"/>
          <rect class="cls-4" x="22.61" y="15.37" width="1.32" height=".22"/>
          <rect class="cls-4" x="22.61" y="16" width="1.32" height=".22"/>
          <rect class="cls-4" x="22.61" y="16.64" width="1.32" height=".22"/>
          <rect class="cls-4" x="22.61" y="17.27" width="1.32" height=".22"/>
          <rect class="cls-4" x="22.61" y="17.91" width="1.32" height=".22"/>
        </g>
      </g>
    </g>
  </g>
</svg>